<?xml version="1.0" standalone="no"?>
<!DOCTYPE svg PUBLIC "-//W3C//DTD SVG 20010904//EN"
 "http://www.w3.org/TR/2001/REC-SVG-20010904/DTD/svg10.dtd">
<svg version="1.0" xmlns="http://www.w3.org/2000/svg"
 width="700.000000pt" height="700.000000pt" viewBox="0 0 700.000000 700.000000"
 preserveAspectRatio="xMidYMid meet">
<metadata>
Created by potrace 1.14, written by Peter Selinger 2001-2017
</metadata>
<g transform="translate(0.000000,700.000000) scale(0.100000,-0.100000)"
fill="#000000" stroke="none">
<path d="M3280 6993 c-19 -1 -87 -8 -150 -14 -507 -48 -1041 -231 -1486 -509
-1421 -891 -2009 -2649 -1412 -4228 61 -161 206 -454 298 -600 157 -251 395
-535 609 -729 558 -504 1225 -804 1986 -893 155 -18 460 -24 620 -11 496 39
907 152 1330 366 217 109 341 186 528 326 1022 766 1543 2030 1361 3299 -84
588 -315 1141 -673 1615 -666 880 -1709 1393 -2811 1383 -91 -1 -181 -3 -200
-5z m495 -1093 c418 -46 803 -195 1120 -433 112 -85 318 -294 403 -408 233
-315 381 -671 446 -1069 9 -52 18 -107 21 -122 l5 -28 -638 0 -638 0 -12 88
c-35 263 -151 502 -320 664 -132 126 -284 201 -475 234 -121 21 -319 14 -432
-15 -378 -100 -646 -426 -734 -898 -83 -439 -33 -905 130 -1225 178 -346 476
-528 864 -528 516 0 871 329 962 889 l18 111 637 0 637 0 -5 -37 c-18 -132
-60 -336 -90 -443 -233 -820 -812 -1369 -1624 -1538 -191 -40 -269 -47 -540
-47 -284 0 -374 9 -589 62 -623 151 -1129 558 -1410 1136 -139 284 -212 543
-252 892 -15 131 -15 492 0 625 68 590 297 1087 676 1465 345 345 767 551
1270 619 119 17 444 20 570 6z"/>
</g>
</svg>
